<svg width="400" height="200" viewBox="0 0 152 80" fill="none" xmlns="http://www.w3.org/2000/svg">
<path d="M43.4323 17.2329H75.8432L88.2659 0H55.2478L43.4323 17.2329Z" fill="#D2CDC9"/>
<path d="M88.1734 4.76367H100.503L84.4372 28.9551H41.7986L47.683 19.9884H77.6655L88.1734 4.76367Z" fill="#3EB8D2"/>
<path d="M111.711 9.80762L92.5166 40.3505H39.697L45.6281 31.7107H86.3053L100.316 9.80762H111.711Z" fill="#E95224"/>
<path d="M141.833 73.7885C143.141 74.2555 144.402 74.4423 145.943 74.4423C148.651 74.4423 151.594 73.3215 151.594 70.0524C151.594 65.3822 145.336 66.4096 145.336 64.2613C145.336 63.0938 146.597 62.907 147.531 62.907C148.698 62.907 149.772 63.1405 150.893 63.5608L151.033 60.8521C149.959 60.5719 148.651 60.3384 147.297 60.3384C144.822 60.3384 141.74 61.4125 141.74 64.4482C141.74 68.8381 148.044 67.9975 148.044 70.3326C148.044 71.5001 147.11 71.8737 145.709 71.8737C144.448 71.8737 143.187 71.5935 141.973 70.9397L141.833 73.7885ZM138.938 71.4534C138.471 71.6402 137.957 71.7336 137.443 71.7336C136.135 71.7336 135.809 70.8463 135.809 69.6787V63.0471H138.844V60.5719H135.809V56.6023L132.072 57.8165V60.5719H129.644V63.0471H132.072V69.632C132.072 72.4808 132.82 74.4423 135.902 74.4423C136.929 74.4423 138.05 74.2555 138.984 73.9286L138.938 71.4534ZM127.402 71.2666C126.468 71.6869 125.581 71.827 124.647 71.827C121.845 71.827 120.35 69.8189 120.35 67.3437C120.35 64.7751 121.891 62.907 124.647 62.907C125.581 62.907 126.468 63.0938 127.309 63.5141L127.449 60.8521C126.281 60.4785 125.254 60.3851 123.853 60.3851C119.556 60.3851 116.287 62.9537 116.287 67.3437C116.287 71.7803 119.323 74.4423 123.713 74.4423C125.067 74.4423 126.235 74.3489 127.449 73.9286L127.402 71.2666ZM112.971 74.1154C112.878 73.1814 112.831 72.294 112.831 70.9397V65.569C112.831 61.5993 110.216 60.2917 106.573 60.2917C105.079 60.2917 103.304 60.6186 101.903 61.179L102.043 63.6542C103.304 63.0004 104.799 62.6268 106.013 62.6268C108.068 62.6268 109.235 63.374 109.235 65.2888V65.7558C108.722 65.7091 108.114 65.7091 107.601 65.7091C103.818 65.7091 100.362 66.6898 100.362 70.2859C100.362 72.9946 102.464 74.4423 104.939 74.4423C106.994 74.4423 108.395 73.6484 109.375 72.1539L109.469 74.1621H112.971V74.1154ZM109.235 67.7173V68.2777C109.235 70.2859 108.208 72.1072 105.919 72.1072C104.752 72.1072 103.911 71.4534 103.911 70.0991C103.911 68.0909 106.293 67.6706 108.488 67.6706H109.235V67.7173ZM88.2195 74.1154V66.6431C88.2195 64.8685 88.8733 63.0004 90.9282 63.0004C92.9364 63.0004 93.1699 64.5883 93.1699 66.2228V74.1621H96.906V65.3822C96.906 62.2999 95.5517 60.3851 92.3759 60.3851C90.5079 60.3851 89.0601 61.179 88.2195 62.907V54.6875H84.4834V74.1154H88.2195ZM71.5937 70.2859C71.1734 69.3985 70.9866 68.2777 70.9866 67.3437C70.9866 65.4756 71.5937 63.0004 73.9288 63.0004C76.3573 63.0004 76.8243 65.4289 76.8243 67.3437C76.8243 69.3051 76.3573 71.827 73.9288 71.827C72.7145 71.827 72.014 71.1265 71.5937 70.2859ZM71.08 79.9531V71.9671C71.7338 73.6017 73.3684 74.4423 75.0963 74.4423C79.2528 74.4423 80.7939 70.9864 80.7939 67.3437C80.7939 63.7476 79.2995 60.3851 75.1897 60.3851C73.3684 60.3851 71.5937 61.3191 70.8465 62.9537L70.7531 60.6653H67.2037C67.2971 61.8329 67.3438 63.0004 67.3438 64.5883V79.9998H71.08V79.9531ZM63.1874 74.1154C63.094 73.1814 63.0473 72.294 63.0473 70.9397V65.569C63.0473 61.5993 60.432 60.2917 56.7893 60.2917C55.2948 60.2917 53.5201 60.6186 52.1191 61.179L52.2592 63.6542C53.5201 63.0004 55.0146 62.6268 56.2288 62.6268C58.2837 62.6268 59.4513 63.374 59.4513 65.2888V65.7558C58.9375 65.7091 58.3304 65.7091 57.8167 65.7091C54.0339 65.7091 50.5779 66.6898 50.5779 70.2859C50.5779 72.9946 52.6795 74.4423 55.1547 74.4423C57.2096 74.4423 58.6106 73.6484 59.5914 72.1539L59.6848 74.1621H63.1874V74.1154ZM59.4513 67.7173V68.2777C59.4513 70.2859 58.4238 72.1072 56.1354 72.1072C54.9679 72.1072 54.1273 71.4534 54.1273 70.0991C54.1273 68.0909 56.509 67.6706 58.704 67.6706H59.4513V67.7173ZM48.1027 71.4534C47.6357 71.6402 47.122 71.7336 46.6083 71.7336C45.3006 71.7336 44.9737 70.8463 44.9737 69.6787V63.0471H48.0093V60.5719H44.9737V56.6023L41.2376 57.8165V60.5719H38.8091V63.0471H41.2376V69.632C41.2376 72.4808 41.9848 74.4423 45.0671 74.4423C46.0946 74.4423 47.2154 74.2555 48.1494 73.9286L48.1027 71.4534ZM36.6141 68.1843V67.297C36.6141 63.1872 34.9796 60.3384 30.6363 60.3384C26.6667 60.3384 23.9113 63.2806 23.9113 67.297C23.9113 71.7803 26.5733 74.3956 31.5703 74.3956C33.0648 74.3956 34.7928 74.0687 35.8669 73.6017L35.7268 71.0331C34.7928 71.5935 33.345 71.9204 31.9907 71.9204C29.0952 71.9204 27.6474 70.4727 27.554 68.1376H36.6141V68.1843ZM27.6007 66.0827C27.6941 64.3547 28.6748 62.5801 30.683 62.5801C32.7379 62.5801 33.2516 64.4015 33.2516 66.0827H27.6007ZM3.78284 74.1154V66.6431C3.78284 64.9152 4.38996 63.0004 6.30473 63.0004C7.98599 63.0004 8.3596 64.2614 8.3596 65.7091V74.1621H12.049V66.6898C12.049 64.9619 12.6562 63.0471 14.5709 63.0471C16.2055 63.0471 16.6258 64.3081 16.6258 65.7558V74.2088H20.3619V65.4289C20.3619 62.4867 19.1944 60.3851 15.972 60.3851C14.2907 60.3851 12.4227 61.4125 11.8155 63.0471C11.3018 61.4592 9.85406 60.3851 7.79918 60.3851C5.83771 60.3851 4.38996 61.2257 3.54933 62.907L3.50263 60.6653H0C0.0934034 61.646 0.140106 62.6735 0.140106 63.7009V74.2088H3.78284V74.1154Z" fill="#182A47"/>
</svg>
